<svg width="22" height="18" viewBox="0 0 22 18" fill="none" xmlns="http://www.w3.org/2000/svg">
<path d="M0.437943 2.00003H13.5629C13.8044 2.00003 14.0004 1.55303 14.0004 1.00003C14.0004 0.447031 13.8044 3.05176e-05 13.5629 3.05176e-05H0.437943C0.196443 3.05176e-05 0.000442505 0.447031 0.000442505 1.00003C0.000442505 1.55303 0.196005 2.00003 0.437943 2.00003Z" fill="white"/>
<path d="M7.46919 18H21.5317C21.7904 18 22.0004 17.553 22.0004 17C22.0004 16.447 21.7904 16 21.5317 16H7.46919C7.21044 16 7.00044 16.447 7.00044 17C7.00044 17.553 7.20997 18 7.46919 18Z" fill="white"/>
<path d="M0.687943 10H21.3129C21.6924 10 22.0004 9.55303 22.0004 9.00003C22.0004 8.44703 21.6924 8.00003 21.3129 8.00003H0.687943C0.308443 8.00003 0.000442505 8.44703 0.000442505 9.00003C0.000442505 9.55303 0.307755 10 0.687943 10Z" fill="white"/>
</svg>
